<?xml version="1.0" encoding="utf-8"?>
<!-- Generator: Adobe Illustrator 24.0.3, SVG Export Plug-In . SVG Version: 6.00 Build 0)  -->
<svg version="1.1" id="Layer_1" xmlns="http://www.w3.org/2000/svg" xmlns:xlink="http://www.w3.org/1999/xlink" x="0px" y="0px"
	 viewBox="0 0 40 40" style="enable-background:new 0 0 40 40;" xml:space="preserve">
<style type="text/css">
	.st0{fill:none;stroke:#408AC9;stroke-width:2;}
	.st1{fill:#408AC9;}
	.st2{fill:#FFFFFF;stroke:#7CC076;stroke-width:2;stroke-linecap:round;stroke-linejoin:round;}
	.st3{fill:#7CC076;}
</style>
<circle class="st0" cx="19" cy="22.7" r="15.2"/>
<path class="st1" d="M13.2,15.2l0.9-0.5c0.9-0.5,1.9-0.2,2.5,0.7l1.1,1.7c0.5,0.7,0.5,1.7,0,2.4l-1.4,2c0.3,1,0.8,1.9,1.5,2.7
	c0.7,0.8,1.5,1.5,2.5,2l2-1.1c0.7-0.4,1.7-0.3,2.3,0.4l1.4,1.4c0.7,0.7,0.8,1.9,0.2,2.7l-0.6,0.9c-0.6,0.9-1.6,1.3-2.7,1.2
	c-2.5-0.3-5-2.1-7.6-5.3c-2.6-3.2-3.8-6.1-3.7-8.7C11.7,16.6,12.3,15.7,13.2,15.2z"/>
<path class="st2" d="M29.3,14.9c-0.2,0-0.4,0.1-0.6,0.2L24,18.2v-2.4c0-0.6-0.4-1-1-1c-0.7,0-1.3-0.3-1.7-0.7
	c-0.5-0.5-0.7-1.1-0.7-1.7V5.5c0-0.7,0.3-1.3,0.7-1.7C21.7,3.2,22.3,3,23,3h10.4c0.7,0,1.3,0.3,1.7,0.7c0.5,0.5,0.7,1.1,0.7,1.7v6.9
	c0,0.7-0.3,1.3-0.7,1.7c-0.5,0.5-1.1,0.7-1.7,0.7H29.3z"/>
<circle class="st3" cx="24.6" cy="8.9" r="1.2"/>
<circle class="st3" cx="28.2" cy="8.9" r="1.2"/>
<circle class="st3" cx="31.8" cy="8.9" r="1.2"/>
</svg>
