<?xml version="1.0" encoding="utf-8"?>
<!-- Generator: Adobe Illustrator 24.0.3, SVG Export Plug-In . SVG Version: 6.00 Build 0)  -->
<svg version="1.1" id="Layer_1" xmlns="http://www.w3.org/2000/svg" xmlns:xlink="http://www.w3.org/1999/xlink" x="0px" y="0px"
	 viewBox="0 0 40 40" style="enable-background:new 0 0 40 40;" xml:space="preserve">
<style type="text/css">
	.st0{fill:none;stroke:#C4CDDF;stroke-width:2;}
	.st1{clip-path:url(#SVGID_2_);}
	.st2{fill:#408AC9;}
	.st3{fill:#FFFFFF;stroke:#7CC076;stroke-width:2;stroke-linecap:round;stroke-linejoin:round;}
	.st4{fill:#7CC076;}
</style>
<circle class="st0" cx="18.6" cy="22.8" r="15.3"/>
<g>
	<defs>
		<rect id="SVGID_1_" x="8.3" y="1.8" width="29" height="33"/>
	</defs>
	<clipPath id="SVGID_2_">
		<use xlink:href="#SVGID_1_"  style="overflow:visible;"/>
	</clipPath>
	<g class="st1">
		<path class="st2" d="M12.8,15.3l0.9-0.5c0.9-0.5,1.9-0.2,2.5,0.7l1.1,1.7c0.5,0.7,0.5,1.7,0,2.4l-1.4,2c0.3,1,0.8,1.9,1.5,2.7
			c0.7,0.8,1.5,1.5,2.5,2l2-1.1c0.7-0.4,1.7-0.3,2.3,0.4l1.4,1.4c0.7,0.7,0.8,1.9,0.2,2.7l-0.6,0.9c-0.6,0.9-1.6,1.3-2.7,1.2
			c-2.5-0.3-5-2.1-7.6-5.3c-2.6-3.2-3.8-6.1-3.7-8.7C11.3,16.8,11.9,15.8,12.8,15.3z"/>
		<path class="st3" d="M28.9,15c-0.2,0-0.4,0.1-0.6,0.2l-4.8,3.2V16c0-0.6-0.4-1-1-1c-0.7,0-1.3-0.3-1.7-0.7
			c-0.5-0.5-0.7-1.1-0.7-1.7V5.6c0-0.7,0.3-1.3,0.7-1.7c0.5-0.5,1.1-0.7,1.7-0.7H33c0.7,0,1.3,0.3,1.7,0.7c0.5,0.5,0.7,1.1,0.7,1.7
			v6.9c0,0.7-0.3,1.3-0.7,1.7C34.3,14.7,33.7,15,33,15H28.9z"/>
		<circle class="st4" cx="24.2" cy="9.1" r="1.2"/>
		<circle class="st4" cx="27.8" cy="9.1" r="1.2"/>
		<circle class="st4" cx="31.4" cy="9.1" r="1.2"/>
	</g>
</g>
</svg>
