<?xml version="1.0" encoding="utf-8"?>
<!-- Generator: Adobe Illustrator 24.0.3, SVG Export Plug-In . SVG Version: 6.00 Build 0)  -->
<svg version="1.1" id="Layer_1" xmlns="http://www.w3.org/2000/svg" xmlns:xlink="http://www.w3.org/1999/xlink" x="0px" y="0px"
	 viewBox="0 0 16 16" style="enable-background:new 0 0 16 16;" xml:space="preserve">
<style type="text/css">
	.st0{display:none;}
	.st1{display:inline;fill:#FFFFFF;}
	.st2{fill-rule:evenodd;clip-rule:evenodd;fill:#FFFFFF;}
</style>
<g id="Layer_1_1_" class="st0">
	<path class="st1" d="M12.7,2.9H9.6c-0.1-0.4-0.4-0.7-0.7-1C8.6,1.7,8.2,1.6,7.8,1.6C7.4,1.6,7,1.7,6.7,1.9c-0.3,0.3-0.5,0.6-0.6,1
		h-3c-0.1,0-0.2,0-0.3,0S2.6,3,2.5,3S2.4,3.2,2.3,3.3c0,0.1-0.1,0.2-0.1,0.3v11c0,0.1,0,0.2,0.1,0.3c0,0.1,0.1,0.2,0.2,0.2
		c0.1,0.1,0.1,0.1,0.2,0.2c0.1,0,0.2,0.1,0.3,0.1h9.7c0.1,0,0.2,0,0.3-0.1c0.1,0,0.2-0.1,0.2-0.2c0.1-0.1,0.1-0.1,0.2-0.2
		c0-0.1,0.1-0.2,0.1-0.3v-11c0-0.1,0-0.2-0.1-0.3c0-0.1-0.1-0.2-0.2-0.2C13.1,3,13.1,2.9,13,2.9S12.8,2.9,12.7,2.9z M4.9,4.1
		c0-0.1,0-0.2,0.1-0.3s0.2-0.1,0.3-0.1h1.5V3.4c0-0.3,0.1-0.5,0.3-0.7c0.2-0.2,0.4-0.3,0.7-0.3c0.3,0,0.5,0.1,0.7,0.3
		s0.3,0.4,0.3,0.7v0.3h1.5c0.1,0,0.2,0,0.3,0.1s0.1,0.2,0.1,0.3v0.8H4.9V4.1z M11.2,8.1L7.3,12L5,9.8C4.9,9.7,4.8,9.5,4.8,9.4
		C4.8,9.2,4.9,9,5,8.9s0.3-0.2,0.4-0.2c0.2,0,0.3,0.1,0.4,0.2l1.4,1.4l3.1-3.1C10.4,7.1,10.6,7,10.7,7c0.2,0,0.3,0.1,0.4,0.2
		c0.1,0.1,0.2,0.3,0.2,0.4C11.4,7.9,11.3,8,11.2,8.1L11.2,8.1z"/>
</g>
<g id="Layer_2_1_">
	<path class="st2" d="M14.1,12.8c-0.4,0.1-1.2,0.4-2.2-1.1c-0.9-1.6-2.2-1.2-2.2-1.2c-0.1,0-0.1,0-0.2,0.1c-1.4-2-5.3-6.3-5.7-6.7
		c-0.5-0.5-1.3-1-2-0.2C1.2,4.3,1.5,5.2,2,5.7C2.3,6,6.7,10,8.7,11.4c0,0.1-0.1,0.2-0.1,0.3c0,2.9,3,2.8,3.6,2.6
		C13.4,14.1,14.5,12.7,14.1,12.8z"/>
	<path class="st2" d="M4.1,8.6L3.4,9.3c0,0-1.8,4.3-2,4.6c-0.1,0.3,0.2,0.6,0.5,0.5c0.4-0.2,4.6-2,4.6-2l0.9-0.9
		C6.3,10.5,5.2,9.6,4.1,8.6z"/>
	<path class="st2" d="M9.6,9.2L13,5.8c0.4-0.4,0.4-1,0-1.4l-1.6-1.6c-0.4-0.4-1.1-0.4-1.5,0L6.8,5.9C7.8,7,8.7,8.1,9.6,9.2z"/>
</g>
<g id="Layer_3" class="st0">
	<path class="st1" d="M7.8,9.8h5c0.4,0,0.7,0.2,1,0.4c0.3,0.3,0.4,0.6,0.4,1v0.6c0,0.3-0.1,0.7-0.2,1c-0.1,0.3-0.4,0.6-0.6,0.8
		c-1,0.9-2.4,1.3-4.3,1.3H9c0.1-0.2,0.1-0.4,0.1-0.6c0-0.2-0.1-0.4-0.3-0.6l-0.1-0.1l-1.4-1.4C7.8,11.4,7.9,10.6,7.8,9.8L7.8,9.8z
		 M4.3,7.5c0.5,0,1.1,0.2,1.5,0.4c0.5,0.3,0.8,0.7,1.1,1.2c0.2,0.5,0.3,1,0.2,1.6c-0.1,0.5-0.3,1.1-0.6,1.5L8.3,14
		c0.1,0.1,0.1,0.2,0.1,0.3s0,0.2-0.1,0.3S8.1,14.8,8,14.8c-0.1,0-0.2,0-0.3-0.1H7.6l-1.9-1.9c-0.4,0.2-0.8,0.4-1.3,0.4
		c-0.4,0-0.9,0-1.3-0.2S2.3,12.6,2,12.2c-0.3-0.3-0.5-0.7-0.6-1.2c-0.1-0.4-0.1-0.9-0.1-1.3C1.6,9.4,1.8,9,2,8.6
		C2.3,8.3,2.7,8,3,7.8C3.4,7.6,3.9,7.5,4.3,7.5z M4.3,8.5C3.8,8.5,3.3,8.7,3,9s-0.6,0.8-0.6,1.4s0.2,1,0.6,1.4s0.8,0.6,1.4,0.6
		c0.5,0,1-0.2,1.4-0.6c0.4-0.4,0.6-0.8,0.6-1.4S6,9.4,5.7,9C5.3,8.7,4.8,8.5,4.3,8.5z M9.1,2.1c0.8,0,1.7,0.3,2.3,0.9
		s0.9,1.4,0.9,2.3c0,0.8-0.3,1.7-0.9,2.3C10.8,8.1,10,8.5,9.1,8.5c-0.8,0-1.7-0.3-2.3-0.9C6.3,6.9,5.9,6.1,5.9,5.3S6.2,3.6,6.8,3
		C7.5,2.4,8.3,2.1,9.1,2.1z"/>
</g>
<g id="Layer_4" class="st0">
	<path class="st1" d="M13.2,4.7h-2.5V4.2c0-0.4-0.2-0.7-0.4-1c-0.3-0.3-0.7-0.4-1-0.4h-3c-0.4,0-0.8,0.2-1,0.4
		C5,3.5,4.9,3.8,4.9,4.2v0.5H2.4C2.2,4.7,1.9,4.8,1.7,5C1.5,5.1,1.4,5.4,1.4,5.6v7.6c0,0.3,0.1,0.5,0.3,0.7s0.4,0.3,0.7,0.3h10.8
		c0.3,0,0.5-0.1,0.7-0.3s0.3-0.4,0.3-0.7V5.6c0-0.3-0.1-0.5-0.3-0.7S13.5,4.7,13.2,4.7z M5.9,7c0,0.1-0.1,0.2-0.1,0.3
		C5.6,7.5,5.5,7.5,5.4,7.5s-0.3,0-0.3-0.1C4.9,7.3,4.9,7.2,4.9,7V6.1c0-0.1,0-0.2,0.1-0.3s0.2-0.1,0.3-0.1c0.1,0,0.3,0,0.3,0.1
		C5.8,5.9,5.9,6,5.9,6.1V7z M5.9,4.2c0-0.1,0-0.2,0.1-0.3s0.2-0.1,0.3-0.1h3c0.1,0,0.3,0.1,0.3,0.1C9.7,4,9.8,4.1,9.8,4.2v0.5H5.9
		V4.2z M10.8,7c0,0.1-0.1,0.2-0.1,0.3c-0.1,0.1-0.2,0.1-0.3,0.1s-0.3,0-0.3-0.1C9.9,7.3,9.8,7.2,9.8,7V6.1c0-0.1,0.1-0.2,0.1-0.3
		c0.1-0.1,0.2-0.1,0.3-0.1s0.3,0,0.3,0.1c0.1,0.1,0.1,0.2,0.1,0.3V7H10.8z"/>
</g>
<g id="Layer_5" class="st0">
	<path class="st1" d="M15,7.5v0.4c0,0.3-0.3,0.6-0.6,0.6h-0.2l-0.7,4.6c-0.1,0.6-0.6,1-1.2,1h-9c-0.6,0-1.1-0.4-1.2-1L1.4,8.5H1.2
		c-0.3,0-0.6-0.3-0.6-0.6V7.5c0-0.3,0.3-0.6,0.6-0.6h1.7l2.7-3.7C5.9,2.8,6.4,2.8,6.7,3c0.4,0.3,0.4,0.8,0.2,1.1l-2,2.7h5.9l-2-2.7
		C8.5,3.8,8.6,3.3,9,3.1c0.4-0.3,0.9-0.2,1.1,0.2L12.8,7h1.7C14.8,6.9,15,7.2,15,7.5z M8.4,11.9V9.1c0-0.3-0.3-0.6-0.6-0.6
		c-0.3,0-0.6,0.3-0.6,0.6v2.8c0,0.3,0.3,0.6,0.6,0.6C8.2,12.5,8.4,12.3,8.4,11.9z M11.2,11.9V9.1c0-0.3-0.3-0.6-0.6-0.6
		S10,8.8,10,9.1v2.8c0,0.3,0.3,0.6,0.6,0.6C11,12.5,11.2,12.3,11.2,11.9z M5.6,11.9V9.1c0-0.3-0.3-0.6-0.6-0.6
		c-0.3,0-0.6,0.3-0.6,0.6v2.8c0,0.3,0.3,0.6,0.6,0.6C5.4,12.5,5.6,12.3,5.6,11.9z"/>
</g>
<g id="Layer_6" class="st0">
	<path class="st1" d="M14.1,1.1c0-0.1-0.1-0.2-0.2-0.3c-0.1-0.1-0.2-0.1-0.4,0c-0.1,0-0.2,0.1-0.3,0.2s-0.1,0.2,0,0.4
		c1.1,1.8,0.9,2.9-0.3,3.8l-0.5-0.7c-0.2-0.2-0.5-0.4-0.8-0.4H9c-0.3,0-0.6,0.1-0.9,0.3L0.8,9.7C0.6,9.8,0.5,10,0.5,10.2
		s0,0.4,0.1,0.6l3.4,5c0.3,0.4,0.7,0.3,1,0.1l7.5-5.3c0.2-0.2,0.5-0.5,0.6-0.7l0.8-2.5C14,7,14,6.7,13.8,6.4L13.5,6
		C15.1,4.9,15.2,2.9,14.1,1.1z M12.3,7.8C12.1,7.9,12,8,11.8,8s-0.3,0-0.5,0S11,8,10.8,7.9c-0.1-0.1-0.3-0.2-0.4-0.3
		c-0.2-0.3-0.3-0.6-0.2-1c0.1-0.3,0.2-0.6,0.5-0.8c0.2-0.2,0.5-0.2,0.7-0.2c0.3,0,0.5,0.1,0.7,0.2C11.9,5.9,11.7,6,11.7,6
		c-0.1,0-0.2,0.1-0.2,0.2s-0.1,0.2,0,0.3c0,0.1,0.1,0.2,0.2,0.3c0.1,0.1,0.2,0.1,0.3,0.1s0.1,0,0.2,0c0.2-0.1,0.3-0.2,0.5-0.3
		c0,0.2,0,0.5-0.1,0.7C12.6,7.5,12.5,7.7,12.3,7.8z"/>
</g>
<g id="Layer_7" class="st0">
	<path class="st1" d="M5.4,5.5l0.5-3.3H3.3L2.2,5.1c0,0.1-0.1,0.2-0.1,0.3c0,0.7,0.7,1.3,1.6,1.3S5.3,6.2,5.4,5.5z M7.8,6.7
		c0.9,0,1.6-0.6,1.6-1.3V5.3L9.1,2.2H6.5L6.2,5.3v0.1C6.2,6.1,6.9,6.7,7.8,6.7z M11,7.3v4.9H4.7V7.3C4.4,7.4,4.1,7.5,3.8,7.5
		c-0.1,0-0.2,0-0.4,0v6.4c0,0.5,0.4,0.9,0.9,0.9h7.1c0.5,0,0.9-0.4,0.9-0.9V7.4c-0.1,0-0.2,0-0.4,0C11.6,7.5,11.3,7.4,11,7.3z
		 M13.5,5.1l-1.1-2.8H9.8l0.5,3.3c0.1,0.6,0.8,1.1,1.6,1.1c0.9,0,1.6-0.6,1.6-1.3C13.5,5.3,13.5,5.2,13.5,5.1z"/>
</g>
<g id="Layer_8" class="st0">
	<path class="st1" d="M5.3,8.9l0.5-3.4H3.1L2,8.4c0,0.1,0,0.2,0,0.4c0,0.7,0.8,1.3,1.7,1.3C4.5,10.1,5.2,9.6,5.3,8.9z M7.8,10.1
		c0.9,0,1.7-0.6,1.7-1.3V8.7L9.2,5.5H6.5L6.2,8.7v0.1C6.2,9.5,6.9,10.1,7.8,10.1z M11.1,10.7v2.2H4.6v-2.2c-0.3,0.1-0.6,0.2-0.9,0.2
		c-0.1,0-0.3,0-0.4,0v2.9c0,0.5,0.4,0.9,0.9,0.9h7.3c0.5,0,0.9-0.4,0.9-0.9v-2.9c-0.1,0-0.2,0-0.4,0C11.7,10.9,11.4,10.9,11.1,10.7z
		 M13.7,8.4l-1.1-2.9H9.8l0.5,3.4C10.4,9.5,11.1,10,12,10s1.7-0.6,1.7-1.3C13.7,8.6,13.7,8.5,13.7,8.4z"/>
	<path class="st1" d="M4.3,2.2h7c0.6,0,1,0.4,1,1l0,0c0,0.6-0.4,1-1,1h-7c-0.6,0-1-0.4-1-1l0,0C3.3,2.7,3.8,2.2,4.3,2.2z"/>
</g>
<g id="Layer_9" class="st0">
	<path class="st1" d="M14.9,6.4c-0.5-1.4-2.2-1.9-3.4-1.1L10,4c0.4-1.4-0.6-2.9-2.1-2.9C6.3,1,5.2,2.5,5.7,4L4.1,5.3
		C2.9,4.5,1.2,5,0.7,6.4C0.3,7.8,1.2,9.1,2.5,9.3l0.6,2.2c-1.1,0.9-1,2.7,0.2,3.6c1.2,0.8,2.9,0.2,3.4-1.1H9c0.5,1.4,2.3,1.9,3.5,1
		s1.1-2.7,0-3.5l0.6-2.1C14.4,9.1,15.4,7.7,14.9,6.4L14.9,6.4z M8.9,12.7H6.8c-0.2-1.2-1.4-2-2.5-1.8L3.7,9.2c1.2-0.5,1.7-1.9,1.2-3
		L6.3,5c0.8,0.7,2.1,0.7,2.9,0l1.4,1.2c-0.5,1.1,0,2.5,1.2,3L11.3,11C10.2,10.8,9.1,11.6,8.9,12.7z"/>
</g>
</svg>
