<?xml version="1.0" encoding="utf-8"?>
<!-- Generator: Adobe Illustrator 24.0.3, SVG Export Plug-In . SVG Version: 6.00 Build 0)  -->
<svg version="1.1" id="Layer_1" xmlns="http://www.w3.org/2000/svg" xmlns:xlink="http://www.w3.org/1999/xlink" x="0px" y="0px"
	 viewBox="0 0 16 15" style="enable-background:new 0 0 16 15;" xml:space="preserve">
<style type="text/css">
	.st0{display:none;fill:#C4CDDF;}
	.st1{display:none;fill-rule:evenodd;clip-rule:evenodd;fill:#C4CDDF;}
	.st2{fill:#C4CDDF;}
	.st3{fill:none;stroke:#C4CDDF;stroke-width:1.2;}
</style>
<path class="st0" d="M11.2,6.1c0.7,0,1.4,0.3,1.9,0.8c0.5,0.5,0.8,1.2,0.8,1.9v3.3c0,0.4-0.1,0.7-0.4,0.9c-0.3,0.3-0.6,0.4-0.9,0.4
	H3.2c-0.4,0-0.7-0.1-0.9-0.4c-0.3-0.2-0.4-0.6-0.4-0.9V8.8c0-0.7,0.3-1.4,0.8-1.9s1.2-0.8,1.9-0.8v-2h1.3v2h1.3v-2h1.3v2h1.3v-2h1.3
	V6.1z M4.5,7.5c-0.4,0-0.7,0.1-0.9,0.4C3.3,8.1,3.2,8.5,3.2,8.8v0.7h9.3V8.8c0-0.4-0.1-0.7-0.4-0.9c-0.2-0.3-0.6-0.4-0.9-0.4H4.5z
	 M3.2,10.8v1.3h9.3v-1.3H3.2z M4.5,2.1c0.2,0,0.3-0.1,0.5-0.2c0.1-0.1,0.2-0.3,0.2-0.5c0.2,0,0.3,0.1,0.5,0.2C5.8,1.8,5.8,2,5.8,2.1
	v0.7c0,0.2-0.1,0.3-0.2,0.5C5.5,3.4,5.3,3.5,5.2,3.5C5,3.5,4.8,3.4,4.7,3.3C4.6,3.2,4.5,3,4.5,2.8V2.1z M7.2,2.1
	c0.2,0,0.3-0.1,0.5-0.2c0.1-0.1,0.2-0.3,0.2-0.5c0.2,0,0.3,0.1,0.5,0.2C8.4,1.8,8.5,2,8.5,2.1v0.7c0,0.2-0.1,0.3-0.2,0.5
	C8.2,3.4,8,3.5,7.8,3.5c-0.2,0-0.3-0.1-0.5-0.2C7.2,3.2,7.2,3,7.2,2.8V2.1z M9.8,2.1c0.2,0,0.3-0.1,0.5-0.2s0.2-0.3,0.2-0.5
	c0.2,0,0.3,0.1,0.5,0.2c0.1,0.1,0.2,0.3,0.2,0.5v0.7c0,0.2-0.1,0.3-0.2,0.5c-0.1,0.1-0.3,0.2-0.5,0.2c-0.2,0-0.3-0.1-0.5-0.2
	C9.9,3.2,9.8,3,9.8,2.8V2.1z"/>
<path class="st0" d="M8.2,13.2c0.3,0,0.5-0.2,0.5-0.5V12c0-0.3,0.2-0.5,0.5-0.5h1.7c0.3,0,0.5-0.2,0.5-0.5v-0.8
	c0-0.3-0.2-0.5-0.5-0.5H9.2c-0.3,0-0.5-0.2-0.5-0.5V9.1c0-0.2,0.2-0.4,0.4-0.5c0.6-0.2,1.1-0.6,1.5-1.1c0.5-0.6,0.7-1.4,0.7-2.2
	c0-1-0.3-1.8-1-2.5c-0.7-0.7-1.5-1-2.5-1S6,2.1,5.3,2.8c-0.7,0.7-1,1.5-1,2.5c0,0.8,0.2,1.5,0.7,2.2C5.5,8,6,8.3,6.6,8.6
	c0.2,0.1,0.4,0.3,0.4,0.5v0.1c0,0.3-0.2,0.5-0.5,0.5H4.8c-0.3,0-0.5,0.2-0.5,0.5V11c0,0.3,0.2,0.5,0.5,0.5h1.7
	c0.3,0,0.5,0.2,0.5,0.5v0.8c0,0.3,0.2,0.5,0.5,0.5H8.2z M7.8,3.5c0.5,0,0.9,0.2,1.3,0.5c0.3,0.3,0.5,0.8,0.5,1.3S9.4,6.2,9.1,6.5
	C8.7,6.9,8.3,7,7.8,7S6.9,6.9,6.6,6.5C6.2,6.2,6.1,5.7,6.1,5.3S6.2,4.4,6.6,4C6.9,3.7,7.3,3.5,7.8,3.5z"/>
<path class="st1" d="M7.8,0.7c1.3,0,2.6,0.4,3.7,1.1c1.1,0.7,2,1.8,2.5,3c0.5,1.2,0.6,2.6,0.4,3.9c-0.3,1.3-0.9,2.5-1.8,3.4
	c-0.9,0.9-2.1,1.6-3.4,1.8c-1.3,0.3-2.7,0.1-3.9-0.4c-1.2-0.5-2.3-1.4-3-2.5S1,8.7,1,7.4c0-1.8,0.7-3.5,2-4.8C4.3,1.4,6,0.7,7.8,0.7
	L7.8,0.7z M11.4,9.8c-0.1,0.1-0.2,0.2-0.4,0.3c-0.2,0-0.3,0-0.5-0.1L7.8,8.4c0,0-0.1,0-0.1-0.1c-0.1,0-0.3-0.1-0.4-0.2
	C7.3,8,7.2,7.9,7.2,7.7V4.5c0-0.2,0.1-0.3,0.2-0.4C7.5,4,7.7,3.9,7.8,3.9S8.2,4,8.3,4.1c0.1,0.1,0.2,0.3,0.2,0.4v2.8L11.2,9
	c0.1,0.1,0.2,0.2,0.3,0.4C11.5,9.5,11.5,9.7,11.4,9.8z"/>
<path class="st2" d="M4.1,10.8V5.9h1.2v4.9H4.1z M4.6,5C4.4,5,4.3,5,4.1,4.9C4,4.7,3.9,4.6,3.9,4.4C3.9,4.2,4,4,4.1,3.9
	c0.1-0.1,0.3-0.2,0.5-0.2c0.2,0,0.4,0.1,0.5,0.2C5.3,4,5.4,4.2,5.4,4.4c0,0.2-0.1,0.3-0.2,0.5C5,5,4.8,5,4.6,5z M6.8,10.8V4.3h1.8
	c1,0,1.8,0.3,2.3,0.8s0.8,1.3,0.8,2.4c0,0.5-0.1,1-0.2,1.4c-0.1,0.4-0.3,0.8-0.6,1c-0.3,0.3-0.6,0.5-1,0.6c-0.4,0.1-0.8,0.2-1.3,0.2
	H6.8z M7.9,9.9h0.5c0.7,0,1.2-0.2,1.5-0.6c0.4-0.4,0.5-1,0.5-1.8c0-0.8-0.2-1.4-0.5-1.8C9.6,5.4,9.1,5.2,8.5,5.2H7.9V9.9z"/>
<path class="st3" d="M2.3,1.6h11c0.8,0,1.4,0.6,1.4,1.4v8.9c0,0.8-0.6,1.4-1.4,1.4h-11c-0.8,0-1.4-0.6-1.4-1.4V3
	C0.9,2.3,1.6,1.6,2.3,1.6z"/>
</svg>
