<?xml version="1.0" encoding="utf-8"?>
<!-- Generator: Adobe Illustrator 24.0.3, SVG Export Plug-In . SVG Version: 6.00 Build 0)  -->
<svg version="1.1" xmlns="http://www.w3.org/2000/svg" xmlns:xlink="http://www.w3.org/1999/xlink" x="0px" y="0px"
	 viewBox="0 0 16 17" style="enable-background:new 0 0 16 17;" xml:space="preserve">
<style type="text/css">
	.st0{display:none;}
	.st1{display:inline;fill:none;stroke:#E11E3E;stroke-width:1.5;stroke-linecap:round;stroke-linejoin:round;}
	.st2{fill:#E11E3E;}
</style>
<g id="Layer_1" class="st0">
	<path class="st1" d="M6.3,15.5h3.1 M13.3,15.5V3c0-0.4-0.2-0.8-0.5-1.1c-0.3-0.3-0.7-0.5-1.1-0.5H3.9c-0.4,0-0.8,0.2-1.1,0.5
		C2.6,2.2,2.4,2.6,2.4,3v12.4H13.3z M13.3,15.5h1.6H13.3z M13.3,15.5H9.4H13.3z M2.4,15.5H0.8H2.4z M2.4,15.5h3.9H2.4z M5.5,4.6h0.8
		H5.5z M5.5,7.7h0.8H5.5z M9.4,4.6h0.8H9.4z M9.4,7.7h0.8H9.4z M6.3,15.5v-3.9c0-0.2,0.1-0.4,0.2-0.5c0.1-0.1,0.3-0.2,0.5-0.2h1.6
		c0.2,0,0.4,0.1,0.5,0.2c0.1,0.1,0.2,0.3,0.2,0.5v3.9H6.3z"/>
</g>
<g id="Layer_2">
	<path class="st2" d="M12.7,4.6h-2.1V3.9c0-0.6-0.2-1.1-0.6-1.5C9.6,2,9.1,1.8,8.5,1.8H7.1C6.6,1.8,6,2,5.6,2.4C5.3,2.8,5,3.4,5,3.9
		v0.7H2.9c-0.6,0-1.1,0.2-1.5,0.6C1.1,5.6,0.8,6.2,0.8,6.7V13c0,0.6,0.2,1.1,0.6,1.5c0.4,0.4,0.9,0.6,1.5,0.6h9.8
		c0.6,0,1.1-0.2,1.5-0.6c0.4-0.4,0.6-0.9,0.6-1.5V6.7c0-0.6-0.2-1.1-0.6-1.5C13.8,4.8,13.3,4.6,12.7,4.6z M6.4,3.9
		c0-0.2,0.1-0.4,0.2-0.5c0.1-0.1,0.3-0.2,0.5-0.2h1.4c0.2,0,0.4,0.1,0.5,0.2c0.1,0.1,0.2,0.3,0.2,0.5v0.7H6.4V3.9z M13.4,13
		c0,0.2-0.1,0.4-0.2,0.5c-0.1,0.1-0.3,0.2-0.5,0.2H2.9c-0.2,0-0.4-0.1-0.5-0.2c-0.1-0.1-0.2-0.3-0.2-0.5V9.5h2.1v0.7
		c0,0.2,0.1,0.4,0.2,0.5c0.1,0.1,0.3,0.2,0.5,0.2c0.2,0,0.4-0.1,0.5-0.2c0.1-0.1,0.2-0.3,0.2-0.5V9.5h4.2v0.7c0,0.2,0.1,0.4,0.2,0.5
		s0.3,0.2,0.5,0.2c0.2,0,0.4-0.1,0.5-0.2s0.2-0.3,0.2-0.5V9.5h2.1V13z M13.4,8.1H2.2V6.7c0-0.2,0.1-0.4,0.2-0.5C2.6,6.1,2.7,6,2.9,6
		h9.8c0.2,0,0.4,0.1,0.5,0.2c0.1,0.1,0.2,0.3,0.2,0.5V8.1z"/>
</g>
</svg>
