<?xml version="1.0" encoding="utf-8"?>
<!-- Generator: Adobe Illustrator 24.0.3, SVG Export Plug-In . SVG Version: 6.00 Build 0)  -->
<svg version="1.1" id="Layer_1" xmlns="http://www.w3.org/2000/svg" xmlns:xlink="http://www.w3.org/1999/xlink" x="0px" y="0px"
	 viewBox="0 0 83 51" style="enable-background:new 0 0 83 51;" xml:space="preserve">
<style type="text/css">
	.st0{fill:#E11E3E;stroke:#E11E3E;stroke-width:0.5;}
</style>
<path class="st0" d="M2.1,50h0.5c0,0-0.2-0.8-0.3-2.3l-0.7,0C1.9,49.1,2.1,50,2.1,50z"/>
<path class="st0" d="M1.7,47.6l0.7,0c0-0.7-0.1-1.7-0.1-2.7l-0.9,0C1.5,46,1.6,46.9,1.7,47.6z"/>
<path class="st0" d="M1.4,44.9l0.9,0c0-0.8,0.1-1.8,0.2-2.8l-1.2-0.1C1.3,43.1,1.4,44,1.4,44.9z"/>
<path class="st0" d="M1.3,42.1l1.2,0.1c0.1-0.9,0.2-1.8,0.4-2.7l-1.5-0.2C1.4,40.3,1.3,41.2,1.3,42.1z"/>
<path class="st0" d="M1.4,39.2l1.5,0.2c0.2-0.9,0.4-1.8,0.6-2.7l-1.8-0.3C1.6,37.4,1.5,38.3,1.4,39.2z"/>
<path class="st0" d="M1.7,36.4l1.8,0.3c0.2-0.8,0.5-1.6,0.8-2.4l-2.2-0.5C1.9,34.7,1.8,35.6,1.7,36.4z"/>
<path class="st0" d="M2.1,33.8l2.2,0.5c0.3-0.8,0.6-1.6,1-2.4l-2.6-0.7C2.4,32.1,2.2,32.9,2.1,33.8z"/>
<path class="st0" d="M2.6,31.2l2.6,0.7c0.4-0.7,0.7-1.5,1.1-2.3l-3-0.9C3.1,29.5,2.9,30.4,2.6,31.2z"/>
<path class="st0" d="M4.2,26.2c-0.3,0.8-0.6,1.6-0.9,2.4l3,0.9c0.4-0.7,0.8-1.3,1.2-2L4.2,26.2z"/>
<path class="st0" d="M8.6,26.1c0,0,0.1-0.1,0.1-0.1l-3.3-2.5c-0.4,0.9-0.8,1.8-1.2,2.7l3.4,1.4C7.9,27.1,8.3,26.6,8.6,26.1z"/>
<path class="st0" d="M6.7,21l3.8,2.9c0.3-0.4,0.7-0.7,1.1-1l-3.9-3.5C7.4,19.9,7,20.4,6.7,21z"/>
<path class="st0" d="M7.7,19.3l3.9,3.5c0.5-0.5,1.1-1,1.6-1.5L9,17.5C8.5,18.1,8.1,18.7,7.7,19.3z"/>
<path class="st0" d="M9.9,16.2c-0.3,0.4-0.7,0.9-1,1.3l4.3,3.8c0.5-0.5,1.1-0.9,1.7-1.4l-4.6-4.3C10.2,15.9,10.1,16,9.9,16.2z"/>
<path class="st0" d="M10.3,15.7l4.6,4.3c0.5-0.4,1.1-0.9,1.7-1.3l-4.7-4.8C11.4,14.5,10.8,15.1,10.3,15.7z"/>
<path class="st0" d="M11.9,13.9l4.7,4.8c0.6-0.4,1.2-0.8,1.8-1.3l-4.9-5.3C12.9,12.7,12.4,13.3,11.9,13.9z"/>
<path class="st0" d="M13.5,12.1l4.9,5.3c0.5-0.4,1.1-0.7,1.7-1.1l-4.9-5.8C14.6,11.1,14,11.6,13.5,12.1z"/>
<path class="st0" d="M15.1,10.6l4.9,5.8c0.6-0.4,1.1-0.7,1.7-1l-4.9-6.2C16.2,9.7,15.7,10.2,15.1,10.6z"/>
<path class="st0" d="M16.8,9.2l4.9,6.2c0.6-0.3,1.2-0.6,1.8-0.9l-4.9-6.6C18,8.3,17.4,8.8,16.8,9.2z"/>
<path class="st0" d="M25.2,13.8l-4.6-7.2c-0.7,0.4-1.3,0.8-1.9,1.3l4.9,6.6c0.3-0.1,0.5-0.2,0.8-0.4C24.6,14,24.9,13.9,25.2,13.8z"
	/>
<path class="st0" d="M26.6,13.3l-3.8-7.9c-0.8,0.4-1.5,0.8-2.2,1.2l4.6,7.2C25.6,13.6,26.1,13.4,26.6,13.3z"/>
<path class="st0" d="M25.4,4.2l4,8.3c0.4-0.1,0.8-0.2,1.3-0.3l-2.7-8.9C27,3.5,26.2,3.8,25.4,4.2z"/>
<path class="st0" d="M27.9,3.2l2.7,8.9c0.5-0.1,1-0.2,1.5-0.3l-1.8-9.4C29.5,2.7,28.7,2.9,27.9,3.2z"/>
<path class="st0" d="M30.3,2.5l1.8,9.4c0.7-0.1,1.4-0.2,2.1-0.3l-1.1-9.8C32.2,2,31.2,2.2,30.3,2.5z"/>
<path class="st0" d="M33.1,1.8l1.1,9.8c0.7-0.1,1.4-0.1,2.1-0.1L35.9,1.4C34.9,1.5,34,1.7,33.1,1.8z"/>
<path class="st0" d="M35.9,1.4l0.5,10.1c0.8,0,1.6,0,2.4,0l0-10.3C37.7,1.2,36.8,1.3,35.9,1.4z"/>
<path class="st0" d="M38.7,1.1l0,10.3c0.8,0,1.5,0.1,2.3,0.1L41.3,1C40.4,1,39.5,1,38.7,1.1z"/>
<path class="st0" d="M44,1c-0.9,0-1.8,0-2.7,0L41,11.6c0.8,0.1,1.6,0.2,2.4,0.3L44,1C44,1,44,1,44,1z"/>
<path class="st0" d="M44,1l-0.6,10.9c0.6,0.1,1.3,0.2,1.9,0.4l1.3-11.1C45.7,1.1,44.9,1,44,1z"/>
<path class="st0" d="M46.5,1.2l-1.3,11.1c0.5,0.1,1.1,0.3,1.6,0.4l2.5-11.2C48.5,1.3,47.5,1.2,46.5,1.2z"/>
<path class="st0" d="M52.3,2.1c-0.9-0.2-1.9-0.4-2.9-0.6l-2.5,11.2c0.5,0.1,1,0.3,1.5,0.5L52.3,2.1z"/>
<path class="st0" d="M55.1,2.9l-4,11.3c0.4,0.2,0.9,0.4,1.3,0.6l5.3-10.9C56.9,3.5,56,3.2,55.1,2.9z"/>
<path class="st0" d="M57.7,3.9l-5.3,10.9c0.5,0.2,0.9,0.5,1.4,0.7l6.5-10.4C59.4,4.7,58.6,4.2,57.7,3.9z"/>
<path class="st0" d="M60.2,5.1l-6.5,10.4c0.5,0.3,1,0.6,1.5,0.9l7.4-9.9C61.8,6,61,5.5,60.2,5.1z"/>
<path class="st0" d="M62.6,6.5l-7.4,9.9c0.5,0.3,1.1,0.7,1.6,1.1l8-9.4C64.1,7.5,63.4,7,62.6,6.5z"/>
<path class="st0" d="M64.8,8l-8,9.4c0.5,0.4,1.1,0.8,1.6,1.2l8.3-9.1C66.1,9,65.4,8.5,64.8,8z"/>
<path class="st0" d="M66.7,9.5l-8.3,9.1c0.5,0.4,1,0.9,1.5,1.4l8.7-8.8C67.9,10.7,67.3,10.1,66.7,9.5z"/>
<path class="st0" d="M68.6,11.3l-8.7,8.8c0.2,0.1,0.3,0.3,0.4,0.4c0.4,0.4,0.7,0.8,1.1,1.2l9.1-8.4C69.9,12.6,69.2,11.9,68.6,11.3z"
	/>
<path class="st0" d="M70.6,13.3l-9.1,8.4c0.5,0.5,0.9,1,1.3,1.6l9.7-7.8C71.8,14.7,71.2,14,70.6,13.3z"/>
<path class="st0" d="M74.2,17.7c-0.5-0.7-1-1.3-1.6-2c-0.1-0.1-0.1-0.2-0.2-0.2l-9.7,7.8c0.4,0.5,0.8,1.1,1.2,1.6L74.2,17.7z"/>
<path class="st0" d="M64.8,26.3l11.1-6.4c-0.5-0.7-1-1.5-1.6-2.3l-10.3,7.3C64.2,25.4,64.5,25.8,64.8,26.3z"/>
<path class="st0" d="M77.3,22.4l-11.1,6.4c0.2,0.5,0.4,0.9,0.6,1.4l11.8-5.3C78.1,24.1,77.7,23.2,77.3,22.4z"/>
<path class="st0" d="M78.5,24.9l-11.8,5.3c0.2,0.5,0.4,0.9,0.6,1.4l12.3-3.9C79.3,26.7,79,25.8,78.5,24.9z"/>
<path class="st0" d="M79.7,27.7l-12.3,3.9c0.3,0.7,0.5,1.5,0.8,2.2l12.5-3.1C80.4,29.6,80,28.7,79.7,27.7z"/>
<path class="st0" d="M80.6,30.6l-12.5,3.1c0.2,0.7,0.4,1.3,0.6,2l12.6-2.4C81.1,32.4,80.9,31.5,80.6,30.6z"/>
<path class="st0" d="M81.3,33.3l-12.6,2.4c0.2,0.8,0.4,1.5,0.5,2.2l12.5-1.9C81.7,35.2,81.5,34.3,81.3,33.3z"/>
<path class="st0" d="M81.8,36.1L69.3,38c0.2,0.8,0.3,1.6,0.5,2.3L82.2,39C82.1,38.1,82,37.1,81.8,36.1z"/>
<path class="st0" d="M82.2,39l-12.4,1.3c0.2,0.9,0.3,1.7,0.4,2.5l12.2-1.1C82.3,40.9,82.2,40,82.2,39z"/>
<path class="st0" d="M82.3,41.8l-12.2,1.1c0.1,0.9,0.2,1.7,0.2,2.4l12-0.6C82.3,43.8,82.3,42.8,82.3,41.8z"/>
<path class="st0" d="M82.3,44.6l-12,0.6c0.1,0.9,0.1,1.7,0.1,2.4l11.7-0.3C82.2,46.6,82.2,45.7,82.3,44.6z"/>
<path class="st0" d="M70.4,47.6c0,1.5,0,2.4,0,2.4h11.3c0,0,0.2-1,0.4-2.6L70.4,47.6z"/>
</svg>
