<?xml version="1.0" encoding="utf-8"?>
<!-- Generator: Adobe Illustrator 24.0.3, SVG Export Plug-In . SVG Version: 6.00 Build 0)  -->
<svg version="1.1" id="Layer_1" xmlns="http://www.w3.org/2000/svg" xmlns:xlink="http://www.w3.org/1999/xlink" x="0px" y="0px"
	 viewBox="0 0 40 40" style="enable-background:new 0 0 40 40;" xml:space="preserve">
<style type="text/css">
	.st0{fill:#C4CDDF;}
	.st1{fill-rule:evenodd;clip-rule:evenodd;fill:#C4CDDF;}
	.st2{fill:none;stroke:#C4CDDF;stroke-width:2;}
	.st3{fill:#FFFFFF;stroke:#E11E3E;stroke-width:2;}
</style>
<path class="st0" d="M19.9,27.2c-0.4-1-1.1-1.9-1.8-2.7c-0.8-0.8-1.7-1.4-2.7-1.8c0,0,0,0,0,0c1.4-1,2.3-2.7,2.3-4.6
	c0-3.1-2.5-5.7-5.7-5.7c-3.1,0-5.7,2.5-5.7,5.7c0,1.9,0.9,3.6,2.3,4.6c0,0,0,0,0,0c-1,0.4-1.9,1-2.7,1.8c-0.8,0.8-1.4,1.7-1.8,2.7
	c-0.4,1-0.5,1.6-0.6,2.2c0,0.3,0.2,0.7,0.2,0.7l0.4,0.3h1.1c0,0,0-2.8,2-4.7c1.3-1.3,3-2,4.8-2s3,0.2,4.8,2c1.9,1.8,2,4.7,2,4.7
	l1.4,0l0.2,0c0,0,0.1-0.2,0.1-0.5C20.5,29.2,20.3,28.1,19.9,27.2z M12,22c-1,0-2-0.4-2.8-1.1c-0.7-0.7-1.1-1.7-1.1-2.8
	c0-1,0.4-2,1.1-2.8c0.7-0.7,1.7-1.1,2.8-1.1s2,0.4,2.8,1.1c0.7,0.7,1.1,1.7,1.1,2.8c0,1-0.4,2-1.1,2.8C14,21.6,13,22,12,22z"/>
<path class="st1" d="M3.7,29.9c0,0-0.1-0.2,0-0.5c0.1-0.6,0-1.2,0.4-2.2c0.4-1,1.1-1.9,1.8-2.7c0.7-0.7,1.6-1.3,2.5-1.7
	c0.1,0,0.1-0.1,0.2-0.1c0,0,0,0,0,0c0,0,0,0,0,0c0,0,0,0,0,0l0,0c-0.1,0-0.1-0.1-0.2-0.1c-1.3-1-2.1-2.6-2.1-4.4
	c0-3.1,2.5-5.7,5.7-5.7c3.1,0,5.7,2.5,5.7,5.7c0,1.8-0.8,3.4-2.1,4.4c-0.1,0-0.1,0.1-0.2,0.1l0,0c0,0,0,0,0,0c0,0,0,0,0,0
	c0,0,0,0,0,0c0.1,0,0.2,0.1,0.2,0.1c0.9,0.4,1.8,1,2.5,1.7c0.8,0.8,1.4,1.7,1.8,2.7c0.4,0.9,0.6,2,0.6,2.7c0,0.3-0.1,0.5-0.1,0.5
	h-0.2l-1.4,0c0,0-0.1-2.9-2-4.7s-3-2-4.8-2s-3.5,0.7-4.8,2c-2,1.9-2,4.7-2,4.7L3.7,29.9z M5.4,30.4v0.2l-1.8-0.5L3.5,30l0.2-0.1
	C3.5,30,3.5,30,3.5,30l0,0l0,0l0,0l0,0c0,0,0,0,0,0c0,0,0-0.1,0-0.1c0-0.1,0-0.2,0-0.4c0.1-0.6,0-1.3,0.4-2.3c0.4-1,1.1-2,1.9-2.8
	c0.7-0.7,1.5-1.3,2.5-1.7c-1.3-1.1-2.1-2.7-2.1-4.5c0-3.3,2.6-5.9,5.9-5.9c3.3,0,5.9,2.6,5.9,5.9c0,1.8-0.8,3.4-2.1,4.5
	c0.9,0.4,1.7,1,2.5,1.7c0.8,0.8,1.4,1.8,1.9,2.8c0.4,1,0.6,2.1,0.6,2.7c0,0.2,0,4.2,0,4.3c0,0.1,0,0.1-0.1,0.1c0,0,0,0,0,0l0,0l0,0
	l0,0l0,0c0,0-0.2-3.7-0.2-4l0.2,4l-0.1,0.1l-0.3,0l-1.7,0l-0.1-4.1l0,0l0,0c0,0,0,0,0-0.1c0-0.1,0-0.2,0-0.3c0-0.3-0.1-0.7-0.2-1.1
	c-0.3-0.9-0.7-2-1.6-2.9c-0.9-0.9-1.6-1.4-2.3-1.6c-0.7-0.3-1.4-0.3-2.3-0.3c-1.8,0-3.4,0.7-4.7,1.9l0,0c-1,0.9-1.4,2-1.7,2.9
	c-0.1,0.4-0.2,0.8-0.2,1.1c0,0.1,0,0.3,0,0.3C5.4,30.3,5.4,30.3,5.4,30.4L5.4,30.4L5.4,30.4z M9.4,20.7c0.7,0.7,1.6,1.1,2.6,1.1
	s1.9-0.4,2.6-1.1c0.7-0.7,1.1-1.6,1.1-2.6s-0.4-1.9-1.1-2.6c-0.7-0.7-1.6-1.1-2.6-1.1s-1.9,0.4-2.6,1.1c-0.7,0.7-1.1,1.6-1.1,2.6
	S8.7,20,9.4,20.7z M9.2,20.8C10,21.6,10.9,22,12,22s2-0.4,2.8-1.1c0.7-0.7,1.1-1.7,1.1-2.8c0-1-0.4-2-1.1-2.8
	C14,14.5,13,14.1,12,14.1s-2,0.4-2.8,1.1C8.5,16,8.1,17,8.1,18C8.1,19.1,8.5,20.1,9.2,20.8z"/>
<circle class="st2" cx="16.5" cy="20.5" r="15.3"/>
<path class="st3" d="M29.3,22.2l0.8,0.9l0.8-0.9c0.8-1,2.1-1.6,3.4-1.6c2.3,0,4.1,1.8,4.1,4.1c0,1.4-0.6,2.8-2,4.4
	c-1.3,1.6-3.3,3.4-5.7,5.6l0,0l-0.3,0.3c-0.2,0.2-0.5,0.2-0.7,0l-0.3-0.3c0,0,0,0,0,0c-2.4-2.2-4.3-3.9-5.7-5.6c-1.3-1.6-2-3-2-4.4
	c0-2.3,1.8-4.1,4.1-4.1C27.2,20.6,28.5,21.3,29.3,22.2z"/>
</svg>
