<?xml version="1.0" encoding="utf-8"?>
<!-- Generator: Adobe Illustrator 24.0.3, SVG Export Plug-In . SVG Version: 6.00 Build 0)  -->
<svg version="1.1" id="Layer_1" xmlns="http://www.w3.org/2000/svg" xmlns:xlink="http://www.w3.org/1999/xlink" x="0px" y="0px"
	 viewBox="0 0 17 17" style="enable-background:new 0 0 17 17;" xml:space="preserve">
<style type="text/css">
	.st0{fill:none;stroke:#C4CDDF;stroke-width:1.5;}
</style>
<path class="st0" d="M8.4,0.7l0.4,0.6c0,0,0,0,0,0c0,0,0,0,0,0c0,0,0,0,0,0l0,0l2,4.4l0.2,0.4l0.4,0l4.6,0.4c0,0,0,0,0,0
	c0,0,0,0,0,0l0.7-0.2l-0.7,0.2c0,0,0,0,0,0.1c0,0,0,0,0,0l-3.6,3.3l-0.3,0.3l0.1,0.5l1.5,5.1c0,0,0,0,0,0c0,0,0,0,0,0c0,0,0,0,0,0
	c0,0,0,0,0,0c0,0,0,0,0,0c0,0,0,0,0,0l-4.4-2.9l-0.4-0.3l-0.4,0.3l-4.4,2.9l0,0c0,0,0,0,0,0c0,0,0,0,0,0c0,0,0,0,0,0s0,0,0,0l0,0
	l1.2-5.2l0.1-0.4L5,9.9L1.6,6.6l0,0c0,0,0,0,0,0c0,0,0,0,0,0c0,0,0,0,0,0L1.2,6l0.5,0.6c0,0,0,0,0,0l0,0l4.6-0.4l0.4,0l0.2-0.4
	l2-4.4l0,0l0,0c0,0,0,0,0,0L8.4,0.7z"/>
</svg>
