<?xml version="1.0" encoding="utf-8"?>
<!-- Generator: Adobe Illustrator 24.0.3, SVG Export Plug-In . SVG Version: 6.00 Build 0)  -->
<svg version="1.1" id="Layer_1" xmlns="http://www.w3.org/2000/svg" xmlns:xlink="http://www.w3.org/1999/xlink" x="0px" y="0px"
	 viewBox="0 0 16 15" style="enable-background:new 0 0 16 15;" xml:space="preserve">
<style type="text/css">
	.st0{display:none;fill:#C4CDDF;}
	.st1{display:none;fill:none;stroke:#C4CDDF;stroke-width:1.2;}
	.st2{fill:#7CC076;}
</style>
<path class="st0" d="M8.5,4.8c0.5,0,1,0.2,1.4,0.6c0.4,0.4,0.6,0.9,0.6,1.4c0,0.2,0.1,0.3,0.2,0.5c0.1,0.1,0.3,0.2,0.5,0.2
	c0.2,0,0.3-0.1,0.5-0.2c0.1-0.1,0.2-0.3,0.2-0.5c0-0.9-0.4-1.7-1-2.4s-1.5-1-2.4-1C8.3,3.5,8.2,3.5,8,3.7C7.9,3.8,7.8,4,7.8,4.1
	c0,0.2,0.1,0.3,0.2,0.5C8.2,4.7,8.3,4.8,8.5,4.8z"/>
<path class="st0" d="M8.5,2.1c1.2,0,2.4,0.5,3.3,1.4c0.9,0.9,1.4,2.1,1.4,3.3c0,0.2,0.1,0.3,0.2,0.5c0.1,0.1,0.3,0.2,0.5,0.2
	c0.2,0,0.3-0.1,0.5-0.2c0.1-0.1,0.2-0.3,0.2-0.5c0-1.6-0.6-3.1-1.8-4.2c-1.1-1.1-2.7-1.8-4.2-1.8C8.3,0.8,8.2,0.9,8,1
	C7.9,1.1,7.8,1.3,7.8,1.5S7.9,1.8,8,1.9C8.2,2.1,8.3,2.1,8.5,2.1z M14.3,10.1c0-0.1-0.1-0.2-0.2-0.3c-0.1-0.1-0.2-0.1-0.3-0.2
	l-4-0.9c-0.1,0-0.2,0-0.3,0c-0.1,0-0.2,0.1-0.3,0.2C9.1,9,9.1,9,8.7,9.8C7.3,9.2,6.1,8,5.5,6.6C6.3,6.1,6.3,6.1,6.4,6
	C6.5,6,6.5,5.9,6.6,5.8c0-0.1,0-0.2,0-0.3l-0.9-4c0-0.1-0.1-0.2-0.2-0.3C5.4,1.1,5.3,1,5.2,1C5.1,0.9,4.9,0.9,4.7,0.9
	c-0.2,0-0.3-0.1-0.5-0.1c-0.8,0-1.6,0.3-2.2,0.9S1.2,3.1,1.2,3.9c0,2.7,1.1,5.3,3,7.3c1.9,1.9,4.5,3,7.3,3c0.4,0,0.8-0.1,1.2-0.2
	c0.4-0.2,0.7-0.4,1-0.7c0.3-0.3,0.5-0.6,0.7-1c0.2-0.4,0.2-0.8,0.2-1.2c0-0.2,0-0.3,0-0.5C14.4,10.4,14.4,10.2,14.3,10.1z
	 M11.4,12.8c-2.4,0-4.6-0.9-6.3-2.6C3.4,8.5,2.5,6.2,2.5,3.9C2.5,3.4,2.7,3,3,2.6c0.3-0.3,0.8-0.5,1.2-0.5h0.2l0.7,3.1L4.8,5.4
	C4.2,5.7,3.8,6,4,6.5c0.4,1.1,1,2.1,1.9,2.9c0.8,0.8,1.8,1.5,2.9,1.9c0.6,0.2,0.8-0.2,1.1-0.8l0.2-0.4l3.1,0.7v0.2
	c0,0.5-0.2,0.9-0.5,1.2C12.3,12.6,11.9,12.8,11.4,12.8z"/>
<path class="st1" d="M0.9,4.5c0-0.8,0.6-1.4,1.4-1.4h11c0.8,0,1.4,0.6,1.4,1.4v6.9c0,0.8-0.6,1.4-1.4,1.4h-11
	c-0.8,0-1.4-0.6-1.4-1.4V4.5z"/>
<polyline class="st1" points="14.5,3.5 7.5,8.5 1.5,3.5 "/>
<path class="st2" d="M11.3,4c0.2-0.2,0.4-0.3,0.6-0.3c0.2,0,0.5,0.1,0.6,0.3c0.2,0.2,0.3,0.4,0.3,0.6s-0.1,0.5-0.2,0.6l-4.9,6.1
	c-0.1,0.1-0.2,0.2-0.3,0.2c-0.1,0.1-0.2,0.1-0.4,0.1c-0.1,0-0.2,0-0.4-0.1c-0.1,0-0.2-0.1-0.3-0.2L3.1,8.2C3,8.1,3,8,2.9,7.9
	C2.9,7.8,2.8,7.7,2.8,7.5c0-0.1,0-0.2,0.1-0.4C2.9,7.1,3,7,3.1,6.9c0.1-0.1,0.2-0.2,0.3-0.2c0.1,0,0.2-0.1,0.4-0.1
	c0.1,0,0.2,0,0.4,0.1c0.1,0.1,0.2,0.1,0.3,0.2L7,9.5L11.3,4C11.3,4,11.3,4,11.3,4L11.3,4z"/>
</svg>
