<?xml version="1.0" encoding="utf-8"?>
<!-- Generator: Adobe Illustrator 24.0.3, SVG Export Plug-In . SVG Version: 6.00 Build 0)  -->
<svg version="1.1" id="Layer_1" xmlns="http://www.w3.org/2000/svg" xmlns:xlink="http://www.w3.org/1999/xlink" x="0px" y="0px"
	 viewBox="0 0 26 25" style="enable-background:new 0 0 26 25;" xml:space="preserve">
<style type="text/css">
	.st0{fill:#C4E8C1;}
	.st1{fill:none;stroke:#7CC076;stroke-width:2.5;stroke-linecap:round;stroke-linejoin:round;}
</style>
<path class="st0" d="M25.1,11.7l-2.2-2.5l0.3-3.3c0.1-0.6-0.3-1.1-0.9-1.3l-3.2-0.7L17.4,1c-0.3-0.5-0.9-0.7-1.5-0.5l-3,1.3l-3-1.3
	C9.3,0.3,8.7,0.5,8.4,1L6.7,3.9L3.5,4.6c-0.6,0.1-1,0.7-0.9,1.2l0.3,3.3l-2.2,2.5c-0.4,0.4-0.4,1.1,0,1.5l2.2,2.5l-0.3,3.3
	c-0.1,0.6,0.3,1.1,0.9,1.3L6.7,21l1.7,2.8c0.3,0.5,0.9,0.7,1.5,0.5l3-1.3l3,1.3c0.5,0.2,1.2,0,1.5-0.5l1.7-2.8l3.2-0.7
	c0.6-0.1,1-0.7,0.9-1.3l-0.3-3.3l2.2-2.5c0.2-0.2,0.3-0.5,0.3-0.8C25.4,12.2,25.3,11.9,25.1,11.7z"/>
<path class="st1" d="M8.4,12.5l3,3l6-6"/>
</svg>
