<?xml version="1.0" encoding="utf-8"?>
<!-- Generator: Adobe Illustrator 24.0.3, SVG Export Plug-In . SVG Version: 6.00 Build 0)  -->
<svg version="1.1" id="Layer_1" xmlns="http://www.w3.org/2000/svg" xmlns:xlink="http://www.w3.org/1999/xlink" x="0px" y="0px"
	 viewBox="0 0 16 17" style="enable-background:new 0 0 16 17;" xml:space="preserve">
<style type="text/css">
	.st0{display:none;}
	.st1{display:none;fill:#C4CDDF;}
	.st2{display:inline;fill:#C4CDDF;}
	.st3{display:inline;fill-rule:evenodd;clip-rule:evenodd;fill:#C4CDDF;}
	.st4{display:inline;}
	.st5{display:inline;clip-path:url(#SVGID_2_);}
	.st6{fill:none;stroke:#C4CDDF;stroke-width:1.8;}
	.st7{fill:none;stroke:#C4CDDF;stroke-width:1.5;}
	.st8{fill:none;stroke:#C4CDDF;stroke-width:2;stroke-linecap:round;stroke-linejoin:round;}
</style>
<g id="bXbJFj_1_" class="st0">
	
		<image style="display:inline;overflow:visible;" width="29" height="30" id="bXbJFj_2_" xlink:href="B9004DD069A1F1A3.jpg"  transform="matrix(0.5517 0 0 0.5517 0 0)">
	</image>
</g>
<path class="st1" d="M10.9,13.3l0.6,0.5l0,0L10.9,13.3z M9.1,15l-0.5-0.6l0,0L9.1,15z M4.8,13.3l-0.6,0.5l0,0L4.8,13.3z M6.6,15
	l-0.5,0.6l0,0L6.6,15z M6.1,5.3l0.5,0.5l0,0L6.1,5.3z M6.1,8.8l0.5-0.5l0,0L6.1,8.8z M9.6,8.8L9.1,8.3l0,0L9.6,8.8z M9.6,5.3
	L9.1,5.8l0,0L9.6,5.3z M10.3,12.8c-0.5,0.6-1.1,1.1-1.7,1.6l0.9,1.2c0.7-0.5,1.3-1.1,1.9-1.8L10.3,12.8z M12.8,7.1
	c0,2.4-1.2,4.3-2.5,5.7l1.1,1c1.4-1.5,2.9-3.8,2.9-6.7H12.8z M7.8,2.2c2.7,0,5,2.1,5,5h1.5c0-3.7-2.9-6.5-6.5-6.5V2.2z M2.9,7.1
	c0-2.8,2.2-5,5-5V0.7c-3.6,0-6.5,2.8-6.5,6.5H2.9z M5.4,12.8c-1.2-1.4-2.5-3.3-2.5-5.7H1.4c0,2.9,1.5,5.2,2.9,6.7L5.4,12.8z
	 M7.1,14.4c-0.6-0.5-1.2-1-1.7-1.6l-1.1,1c0.6,0.6,1.2,1.2,1.9,1.8L7.1,14.4z M8.6,14.4c-0.4,0.3-0.6,0.4-0.8,0.4
	c-0.1,0-0.3-0.1-0.8-0.4l-0.9,1.2c0.5,0.4,1,0.7,1.7,0.7c0.6,0,1.2-0.3,1.7-0.7L8.6,14.4z M6.6,5.8c0.3-0.3,0.8-0.5,1.2-0.5V3.8
	c-0.9,0-1.7,0.3-2.3,1L6.6,5.8z M6.1,7c0-0.5,0.2-0.9,0.5-1.2L5.5,4.7c-0.6,0.6-1,1.4-1,2.3H6.1z M6.6,8.3C6.3,8,6.1,7.5,6.1,7H4.6
	c0,0.9,0.3,1.7,1,2.3L6.6,8.3z M7.8,8.8c-0.5,0-0.9-0.2-1.2-0.5L5.5,9.3c0.6,0.6,1.4,1,2.3,1V8.8z M9.1,8.3C8.7,8.6,8.3,8.8,7.8,8.8
	v1.5c0.9,0,1.7-0.3,2.3-1L9.1,8.3z M9.6,7c0,0.5-0.2,0.9-0.5,1.2l1.1,1.1c0.6-0.6,1-1.4,1-2.3H9.6z M9.1,5.8C9.4,6.1,9.6,6.6,9.6,7
	h1.5c0-0.9-0.3-1.7-1-2.3L9.1,5.8z M7.8,5.3c0.5,0,0.9,0.2,1.2,0.5l1.1-1.1c-0.6-0.6-1.4-1-2.3-1V5.3z"/>
<g id="Layer_2" class="st0">
	<path class="st2" d="M7.8,1C5.7,1,4.1,2.6,4.1,4.7c0,2.1,1.6,3.8,3.8,3.8s3.8-1.6,3.8-3.8C11.6,2.6,10,1,7.8,1z M7.8,6.6
		C6.7,6.6,6,5.8,6,4.7s0.8-1.9,1.9-1.9s1.9,0.8,1.9,1.9S8.9,6.6,7.8,6.6z"/>
	<path class="st3" d="M2.3,14.1C3.9,15.3,5.8,16,7.8,16c2.1,0,4-0.7,5.5-1.9c0,0,0-0.7,0-1.1c-0.1-0.5-0.3-1.1-0.3-1.1
		c-0.4-0.9-1-1.6-1.7-2.1C10.6,9.3,9.7,9,8.8,9H6.9C6,9,5.1,9.3,4.3,9.8c-0.8,0.5-1.4,1.2-1.7,2.1c0,0-0.2,0.6-0.3,1
		C2.3,13.4,2.3,14.1,2.3,14.1z M5.1,11.5c-0.5,0.4-0.8,1-1,1.6c1.1,0.6,2.4,1,3.7,1s2.6-0.4,3.7-1c-0.1-0.6-0.5-1.2-1-1.6
		c-0.5-0.4-1.1-0.6-1.8-0.6H6.9C6.3,10.9,5.6,11.1,5.1,11.5z"/>
</g>
<g class="st0">
	<defs>
		<rect id="SVGID_1_" x="-0.2" y="0.5" width="16" height="16"/>
	</defs>
	<clipPath id="SVGID_2_" class="st4">
		<use xlink:href="#SVGID_1_"  style="overflow:visible;"/>
	</clipPath>
	<g class="st5">
		<path class="st6" d="M10.7,2.6c-1.1,0-2.2,0.5-2.9,1.3C7.1,3.1,6.1,2.6,5,2.6c-2,0-3.5,1.5-3.5,3.5c0,2.4,2.2,4.4,5.5,7.4l0.9,0.8
			l0.9-0.8c3.3-3,5.5-5,5.5-7.4C14.2,4.1,12.7,2.6,10.7,2.6z"/>
	</g>
</g>
<path class="st1" d="M5.7,7.8H4.3v1.4h1.4V7.8z M8.5,7.8H7.1v1.4h1.4V7.8z M11.4,7.8H10v1.4h1.4V7.8z M12.8,2.8h-0.7V1.4h-1.4v1.4H5
	V1.4H3.6v1.4H2.9c-0.8,0-1.4,0.6-1.4,1.4l0,9.9c0,0.4,0.1,0.7,0.4,1c0.3,0.3,0.6,0.4,1,0.4h9.9c0.8,0,1.4-0.6,1.4-1.4V4.2
	C14.2,3.5,13.6,2.8,12.8,2.8z M12.8,14.1H2.9V6.4h9.9V14.1z"/>
<path class="st7" d="M7.8,14.9c1.7,0,3.3-0.7,4.5-1.9c1.2-1.2,1.9-2.8,1.9-4.5c0-1.7-0.7-3.3-1.9-4.5c-1.2-1.2-2.8-1.9-4.5-1.9
	c-1.7,0-3.3,0.7-4.5,1.9C2.1,5.1,1.4,6.8,1.4,8.5c0,1.7,0.7,3.3,1.9,4.5C4.5,14.2,6.1,14.9,7.8,14.9z"/>
<path class="st8" d="M9.9,11.1L7.8,8.7V4.9"/>
</svg>
