<?xml version="1.0" encoding="utf-8"?>
<!-- Generator: Adobe Illustrator 24.0.3, SVG Export Plug-In . SVG Version: 6.00 Build 0)  -->
<svg version="1.1" xmlns="http://www.w3.org/2000/svg" xmlns:xlink="http://www.w3.org/1999/xlink" x="0px" y="0px"
	 viewBox="0 0 22 21" style="enable-background:new 0 0 22 21;" xml:space="preserve">
<style type="text/css">
	.st0{fill:none;stroke:#C4CDDF;stroke-width:2;stroke-linecap:round;stroke-linejoin:round;}
	.st1{display:none;}
	.st2{display:inline;fill:none;stroke:#C4CDDF;stroke-width:2;stroke-linecap:round;stroke-linejoin:round;}
	.st3{display:inline;fill-rule:evenodd;clip-rule:evenodd;fill:#FFFFFF;filter:url(#Adobe_OpacityMaskFilter);}
	.st4{display:inline;mask:url(#path-1-inside-1_2_);fill:#C4CDDF;}
	.st5{display:inline;fill:#FFFFFF;stroke:#C4CDDF;stroke-width:1.5;stroke-linecap:round;stroke-linejoin:round;}
	.st6{display:inline;fill:#C4CDDF;}
</style>
<g id="Layer_1">
	<path class="st0" d="M14.8,4.4l2.1,2.1L14.8,4.4z M16.2,2.5l-5.7,5.7c-0.3,0.3-0.5,0.7-0.6,1.1L9.3,12l2.6-0.5
		c0.4-0.1,0.8-0.3,1.1-0.6l5.7-5.7C19,5,19.1,4.8,19.2,4.5c0.1-0.2,0.1-0.5,0.1-0.7c0-0.2,0-0.5-0.1-0.7c-0.1-0.2-0.2-0.4-0.4-0.6
		c-0.2-0.2-0.4-0.3-0.6-0.4C18,2,17.7,2,17.5,2S17,2,16.8,2.1C16.5,2.2,16.3,2.3,16.2,2.5L16.2,2.5z"/>
	<path class="st0" d="M17.3,14v3c0,0.5-0.2,1-0.6,1.4c-0.4,0.4-0.9,0.6-1.4,0.6h-11c-0.5,0-1-0.2-1.4-0.6C2.5,18,2.3,17.5,2.3,17V6
		c0-0.5,0.2-1,0.6-1.4C3.3,4.2,3.8,4,4.3,4h3"/>
</g>
<g id="Layer_2" class="st1">
	<path class="st2" d="M10.1,3.9c0.2,0.2,0.5,0.4,0.8,0.4c0.3,0,0.6-0.1,0.8-0.4c1-1.1,2.4-1.8,4-1.8c2.7,0,4.8,2.1,4.8,4.8
		c0,1.7-0.7,3.2-2.2,5.1c-1.5,1.8-3.7,3.8-6.4,6.3l0,0l-0.9,0.8L10,18.2c0,0,0,0,0,0c-2.7-2.5-4.9-4.5-6.4-6.3
		C2.1,10,1.3,8.4,1.3,6.8C1.3,4.1,3.4,2,6.1,2C7.6,2,9.1,2.7,10.1,3.9z"/>
</g>
<g id="Layer_3" class="st1">
	<path class="st2" d="M18.9,13.1v3.6c0,0.5-0.2,0.9-0.5,1.3c-0.3,0.3-0.8,0.5-1.3,0.5H4.6c-0.5,0-0.9-0.2-1.3-0.5
		c-0.3-0.3-0.5-0.8-0.5-1.3v-3.6"/>
	<path class="st2" d="M6.4,8.7l4.5,4.5l4.5-4.5"/>
	<path class="st2" d="M10.8,13.1V2.5"/>
</g>
<g id="Layer_4" class="st1">
	<defs>
		<filter id="Adobe_OpacityMaskFilter" filterUnits="userSpaceOnUse" x="-1.2" y="2.9" width="24" height="15">
			<feColorMatrix  type="matrix" values="1 0 0 0 0  0 1 0 0 0  0 0 1 0 0  0 0 0 1 0"/>
		</filter>
	</defs>
	<mask maskUnits="userSpaceOnUse" x="-1.2" y="2.9" width="24" height="15" id="path-1-inside-1_2_" style="display:inline;">
		<path style="fill-rule:evenodd;clip-rule:evenodd;fill:#FFFFFF;filter:url(#Adobe_OpacityMaskFilter);" d="M20.8,6.9v3v0.5v3.5
			c0,1.1-0.9,2-2,2h-16c-1.1,0-2-0.9-2-2v-3.5V9.9v-3c0-1.1,0.9-2,2-2h16C19.9,4.9,20.8,5.8,20.8,6.9z"/>
	</mask>
	<path class="st4" d="M22.8,9.9v-3h-4v3H22.8z M22.8,10.4V9.9h-4v0.5H22.8z M22.8,13.9v-3.5h-4v3.5H22.8z M18.8,17.9
		c2.2,0,4-1.8,4-4h-4V17.9z M2.8,17.9h16v-4h-16V17.9z M-1.2,13.9c0,2.2,1.8,4,4,4v-4H-1.2z M-1.2,10.4v3.5h4v-3.5H-1.2z M-1.2,9.9
		v0.5h4V9.9H-1.2z M-1.2,6.9v3h4v-3H-1.2z M2.8,2.9c-2.2,0-4,1.8-4,4h4l0,0V2.9z M18.8,2.9h-16v4h16V2.9z M22.8,6.9c0-2.2-1.8-4-4-4
		v4l0,0H22.8z"/>
	<path class="st5" d="M4.3,1.1h13v5h-13V1.1z"/>
	<path class="st6" d="M17.6,13.4H4.1c-0.4,0-0.8-0.4-0.8-0.8c0-0.4,0.3-0.8,0.8-0.8h13.5c0.4,0,0.8,0.4,0.8,0.8
		C18.3,13,18,13.4,17.6,13.4z"/>
	<path class="st5" d="M4.3,13.4h13v6.5h-13V13.4z"/>
	<path class="st6" d="M15.4,16.4H6.1c-0.3,0-0.5-0.4-0.5-0.8s0.2-0.8,0.5-0.8h9.3c0.3,0,0.5,0.4,0.5,0.8S15.7,16.4,15.4,16.4z"/>
	<path class="st6" d="M15.4,18.5H6.1c-0.3,0-0.5-0.4-0.5-0.8S5.8,17,6.1,17h9.3c0.3,0,0.5,0.4,0.5,0.8S15.7,18.5,15.4,18.5z"/>
</g>
</svg>
